# xmcd CD database file
#
# Track frame offsets:
#	150
#	15428
#	29703
#	44657
#	59200
#	74200
#	87908
#	101523
#	115760
#	128087
#	142306
#	157231
#	170767
#	185963
#	200475
#	214294
#	229521
#	242305
#	256605
#	271661
#
# Disc length: 3823 seconds
#
# Revision: 0
# Processed by: cddbd v1.5.1PL0 Copyright (c) Steve Scherf et al.
# Submitted via: CDex 1.50
#
DISCID=350eed14
DTITLE=Louis ARMSTRONG - Volume 1-2
DYEAR=1900
DGENRE=Jazz
TTITLE0=Ain't Misbehavin'
TTITLE1=That's My Home
TTITLE2=West End Blues
TTITLE3=The Frim Fram Sauce
TTITLE4=St James Infirmary
TTITLE5=All Or Me
TTITLE6=Struttin' With Some Barbecue
TTITLE7=Black and Blues ?
TTITLE8=Jeepers Creepers
TTITLE9=I'm In The Mood For Love
TTITLE10=Dinah
TTITLE11=Flat Foot Floogie
TTITLE12=Rockin' Chair
TTITLE13=When it's Sleepy Time Down South
TTITLE14=Potato Head Blues
TTITLE15=I'm Confessin'
TTITLE16=Muggles
TTITLE17=That Rhythm Man
TTITLE18=Shoe Shine Boy
TTITLE19=Sweethearts On Parade
EXTD=
EXTT0=
EXTT1=
EXTT2=
EXTT3=
EXTT4=
EXTT5=
EXTT6=
EXTT7=
EXTT8=
EXTT9=
EXTT10=
EXTT11=
EXTT12=
EXTT13=
EXTT14=
EXTT15=
EXTT16=
EXTT17=
EXTT18=
EXTT19=
PLAYORDER=
